<?xml version="1.0" standalone="no"?>
<!DOCTYPE svg PUBLIC "-//W3C//DTD SVG 20010904//EN"
 "http://www.w3.org/TR/2001/REC-SVG-20010904/DTD/svg10.dtd">
<svg version="1.0" xmlns="http://www.w3.org/2000/svg"
 width="1920.000000pt" height="595.000000pt" viewBox="0 0 1920.000000 595.000000"
 preserveAspectRatio="xMidYMid meet">

<g transform="translate(0.000000,595.000000) scale(0.100000,-0.100000)"
fill="#000000" stroke="none">
<path d="M594 5935 c26 -19 42 -19 26 0 -7 8 -20 15 -29 15 -13 -1 -13 -3 3
-15z"/>
<path d="M420 5940 c-7 -18 -5 -49 3 -41 5 5 7 17 4 27 -3 11 -6 17 -7 14z"/>
<path d="M1290 5916 c0 -2 9 -6 20 -9 11 -3 18 -1 14 4 -5 9 -34 13 -34 5z"/>
<path d="M16528 5913 c6 -2 18 -2 25 0 6 3 1 5 -13 5 -14 0 -19 -2 -12 -5z"/>
<path d="M570 5900 c0 -5 11 -10 25 -10 14 0 25 5 25 10 0 6 -11 10 -25 10
-14 0 -25 -4 -25 -10z"/>
<path d="M1264 5898 c-8 -12 30 -48 50 -48 6 0 2 6 -9 12 -24 14 -35 29 -29
40 3 4 3 8 0 8 -3 0 -8 -5 -12 -12z"/>
<path d="M1375 5890 c-4 -6 -3 -16 3 -22 13 -13 23 4 13 21 -7 10 -10 10 -16
1z"/>
<path d="M1618 5872 c-3 -11 0 -19 8 -19 16 0 19 23 5 31 -5 3 -11 -2 -13 -12z"/>
<path d="M1431 5848 c1 -16 3 -18 6 -6 2 9 12 19 21 21 12 3 10 5 -5 6 -18 1
-23 -4 -22 -21z"/>
<path d="M16028 5853 c7 -3 16 -2 19 1 4 3 -2 6 -13 5 -11 0 -14 -3 -6 -6z"/>
<path d="M16263 5853 c9 -2 23 -2 30 0 6 3 -1 5 -18 5 -16 0 -22 -2 -12 -5z"/>
<path d="M16393 5853 c9 -2 25 -2 35 0 9 3 1 5 -18 5 -19 0 -27 -2 -17 -5z"/>
<path d="M16533 5853 c9 -2 23 -2 30 0 6 3 -1 5 -18 5 -16 0 -22 -2 -12 -5z"/>
<path d="M16633 5853 c9 -2 25 -2 35 0 9 3 1 5 -18 5 -19 0 -27 -2 -17 -5z"/>
<path d="M16838 5853 c7 -3 16 -2 19 1 4 3 -2 6 -13 5 -11 0 -14 -3 -6 -6z"/>
<path d="M1706 5843 c-3 -3 -6 -16 -5 -27 0 -15 2 -17 6 -6 3 8 10 18 16 21 6
4 6 9 -1 12 -5 4 -12 4 -16 0z"/>
<path d="M1778 5839 c-11 -6 -18 -22 -18 -38 0 -16 8 -35 18 -42 14 -11 15
-11 5 1 -19 20 -16 61 5 76 20 16 14 18 -10 3z"/>
<path d="M1638 5824 c-3 -11 1 -25 9 -32 15 -15 17 -1 4 32 -8 20 -8 20 -13 0z"/>
<path d="M1815 5830 c-3 -5 -1 -10 4 -10 6 0 11 5 11 10 0 6 -2 10 -4 10 -3 0
-8 -4 -11 -10z"/>
<path d="M1587 5809 c-5 -17 -3 -18 11 -7 9 7 18 13 20 14 2 1 -4 4 -12 7 -8
3 -16 -2 -19 -14z"/>
<path d="M1976 5821 c-3 -5 5 -11 19 -13 28 -6 34 6 9 16 -20 8 -22 8 -28 -3z"/>
<path d="M1295 5810 c-16 -7 -17 -9 -3 -9 9 -1 20 4 23 9 7 11 7 11 -20 0z"/>
<path d="M1370 5811 c0 -5 5 -13 10 -16 6 -3 10 -2 10 4 0 5 -4 13 -10 16 -5
3 -10 2 -10 -4z"/>
<path d="M1860 5792 c0 -20 19 -52 31 -52 6 0 3 7 -5 16 -24 23 -20 32 17 36
l32 3 -37 6 c-28 4 -38 1 -38 -9z"/>
<path d="M14598 5803 c7 -3 16 -2 19 1 4 3 -2 6 -13 5 -11 0 -14 -3 -6 -6z"/>
<path d="M1995 5772 l30 -17 -33 -3 c-18 -2 -30 -8 -27 -13 8 -13 39 -11 53 3
14 14 -12 48 -37 48 -10 -1 -4 -8 14 -18z"/>
<path d="M14338 5763 c7 -3 16 -2 19 1 4 3 -2 6 -13 5 -11 0 -14 -3 -6 -6z"/>
<path d="M14538 5763 c7 -3 16 -2 19 1 4 3 -2 6 -13 5 -11 0 -14 -3 -6 -6z"/>
<path d="M5198 5713 c7 -3 16 -2 19 1 4 3 -2 6 -13 5 -11 0 -14 -3 -6 -6z"/>
<path d="M4583 5673 c9 -2 23 -2 30 0 6 3 -1 5 -18 5 -16 0 -22 -2 -12 -5z"/>
<path d="M4888 5673 c7 -3 16 -2 19 1 4 3 -2 6 -13 5 -11 0 -14 -3 -6 -6z"/>
<path d="M5008 5673 c6 -2 18 -2 25 0 6 3 1 5 -13 5 -14 0 -19 -2 -12 -5z"/>
<path d="M5113 5673 c9 -2 23 -2 30 0 6 3 -1 5 -18 5 -16 0 -22 -2 -12 -5z"/>
<path d="M5598 5673 c7 -3 16 -2 19 1 4 3 -2 6 -13 5 -11 0 -14 -3 -6 -6z"/>
<path d="M5748 5673 c7 -3 16 -2 19 1 4 3 -2 6 -13 5 -11 0 -14 -3 -6 -6z"/>
<path d="M17620 5666 c0 -8 -15 -24 -32 -36 -28 -19 -30 -21 -8 -15 14 4 37 8
52 8 18 0 30 7 37 24 15 33 15 33 -19 33 -19 0 -30 -5 -30 -14z"/>
<path d="M13438 5663 c6 -2 18 -2 25 0 6 3 1 5 -13 5 -14 0 -19 -2 -12 -5z"/>
<path d="M13993 5663 c9 -2 23 -2 30 0 6 3 -1 5 -18 5 -16 0 -22 -2 -12 -5z"/>
<path d="M19167 5635 c10 -13 22 -25 27 -25 5 0 -1 11 -14 25 -30 32 -36 32
-13 0z"/>
<path d="M2928 5633 c7 -3 16 -2 19 1 4 3 -2 6 -13 5 -11 0 -14 -3 -6 -6z"/>
<path d="M3028 5633 c7 -3 16 -2 19 1 4 3 -2 6 -13 5 -11 0 -14 -3 -6 -6z"/>
<path d="M4338 5623 c6 -2 18 -2 25 0 6 3 1 5 -13 5 -14 0 -19 -2 -12 -5z"/>
<path d="M19128 5618 c9 -9 9 -15 -1 -27 -11 -14 -10 -14 6 -2 13 10 15 17 6
27 -6 8 -14 14 -17 14 -3 0 -1 -5 6 -12z"/>
<path d="M13443 5603 c9 -2 23 -2 30 0 6 3 -1 5 -18 5 -16 0 -22 -2 -12 -5z"/>
<path d="M13543 5603 c9 -2 25 -2 35 0 9 3 1 5 -18 5 -19 0 -27 -2 -17 -5z"/>
<path d="M13993 5603 c9 -2 23 -2 30 0 6 3 -1 5 -18 5 -16 0 -22 -2 -12 -5z"/>
<path d="M14313 5603 c9 -2 23 -2 30 0 6 3 -1 5 -18 5 -16 0 -22 -2 -12 -5z"/>
<path d="M14608 5603 c7 -3 16 -2 19 1 4 3 -2 6 -13 5 -11 0 -14 -3 -6 -6z"/>
<path d="M19160 5580 c0 -5 5 -10 11 -10 5 0 7 5 4 10 -3 6 -8 10 -11 10 -2 0
-4 -4 -4 -10z"/>
<path d="M11643 5553 c9 -2 23 -2 30 0 6 3 -1 5 -18 5 -16 0 -22 -2 -12 -5z"/>
<path d="M12058 5553 c7 -3 16 -2 19 1 4 3 -2 6 -13 5 -11 0 -14 -3 -6 -6z"/>
<path d="M12493 5553 c9 -2 23 -2 30 0 6 3 -1 5 -18 5 -16 0 -22 -2 -12 -5z"/>
<path d="M19128 5548 c5 -5 16 -8 23 -6 8 3 3 7 -10 11 -17 4 -21 3 -13 -5z"/>
<path d="M19037 5519 c7 -7 15 -10 18 -7 3 3 -2 9 -12 12 -14 6 -15 5 -6 -5z"/>
<path d="M2728 5503 c7 -3 16 -2 19 1 4 3 -2 6 -13 5 -11 0 -14 -3 -6 -6z"/>
<path d="M6465 5500 c-9 -15 14 -32 34 -25 16 5 21 2 21 -11 0 -16 1 -16 20 1
17 15 24 16 45 7 32 -15 32 -32 0 -32 -14 0 -25 -4 -25 -10 0 -5 11 -10 25
-10 27 0 32 -9 13 -28 -17 -17 -44 -15 -62 4 -15 14 -16 14 -16 0 0 -9 -7 -16
-15 -16 -10 0 -15 10 -15 30 0 20 -5 30 -15 30 -24 0 -29 -27 -11 -55 14 -22
24 -25 74 -25 83 0 95 12 87 86 l-7 60 -75 -1 c-41 0 -76 -2 -78 -5z"/>
<path d="M18989 5491 c8 -5 10 -14 6 -21 -6 -9 -4 -11 4 -6 7 5 18 0 26 -10 8
-11 15 -14 15 -8 0 13 -42 54 -56 54 -5 0 -3 -4 5 -9z"/>
<path d="M2813 5443 c9 -2 23 -2 30 0 6 3 -1 5 -18 5 -16 0 -22 -2 -12 -5z"/>
<path d="M18980 5429 c0 -5 9 -9 20 -9 11 0 20 2 20 4 0 2 -9 6 -20 9 -11 3
-20 1 -20 -4z"/>
<path d="M14 5405 c-9 -14 -14 -28 -11 -31 3 -3 8 4 12 15 8 25 41 37 61 20
12 -10 13 -9 8 5 -10 25 -51 20 -70 -9z"/>
<path d="M18840 5411 c0 -5 9 -16 20 -26 19 -18 20 -17 20 2 0 12 -8 23 -20
26 -11 3 -20 2 -20 -2z"/>
<path d="M18940 5397 c0 -8 7 -17 15 -21 8 -3 15 -2 15 3 0 5 -7 14 -15 21
-12 10 -15 10 -15 -3z"/>
<path d="M111 5343 c-10 -26 -10 -27 4 -9 8 11 15 23 15 28 0 15 -7 8 -19 -19z"/>
<path d="M0 5353 c0 -6 8 -17 18 -24 16 -13 16 -13 2 6 -8 11 -16 22 -17 24
-2 2 -3 0 -3 -6z"/>
<path d="M8818 5353 c7 -3 16 -2 19 1 4 3 -2 6 -13 5 -11 0 -14 -3 -6 -6z"/>
<path d="M18895 5340 c10 -11 20 -20 23 -20 3 0 -3 9 -13 20 -10 11 -20 20
-23 20 -3 0 3 -9 13 -20z"/>
<path d="M9193 5343 c9 -2 25 -2 35 0 9 3 1 5 -18 5 -19 0 -27 -2 -17 -5z"/>
<path d="M240 5304 c0 -8 5 -12 10 -9 6 3 10 10 10 16 0 5 -4 9 -10 9 -5 0
-10 -7 -10 -16z"/>
<path d="M18802 5316 c4 -5 3 -15 -4 -23 -9 -11 -7 -12 7 -7 10 4 20 1 25 -7
5 -7 11 -11 14 -8 3 3 -6 16 -22 30 -15 13 -24 20 -20 15z"/>
<path d="M96 5297 c3 -10 9 -15 12 -12 3 3 0 11 -7 18 -10 9 -11 8 -5 -6z"/>
<path d="M143 5293 c-15 -5 -17 -23 -4 -23 5 0 11 7 15 15 3 8 4 15 3 14 -1 0
-8 -3 -14 -6z"/>
<path d="M325 5264 c0 -13 3 -24 8 -24 4 0 7 9 7 19 0 11 -3 22 -7 24 -5 3 -8
-6 -8 -19z"/>
<path d="M432 5260 c0 -19 2 -27 5 -17 2 9 2 25 0 35 -3 9 -5 1 -5 -18z"/>
<path d="M2748 5283 c7 -3 16 -2 19 1 4 3 -2 6 -13 5 -11 0 -14 -3 -6 -6z"/>
<path d="M3238 5283 c7 -3 16 -2 19 1 4 3 -2 6 -13 5 -11 0 -14 -3 -6 -6z"/>
<path d="M191 5256 c-8 -9 -9 -16 -3 -16 6 0 19 -3 29 -6 11 -4 14 -3 7 3 -6
4 -13 14 -15 22 -4 10 -7 10 -18 -3z"/>
<path d="M18720 5261 c0 -5 7 -12 16 -15 14 -5 15 -4 4 9 -14 17 -20 19 -20 6z"/>
<path d="M491 5237 c-13 -21 -12 -21 5 -5 10 10 16 20 13 22 -3 3 -11 -5 -18
-17z"/>
<path d="M18798 5248 c5 -5 16 -8 23 -6 8 3 3 7 -10 11 -17 4 -21 3 -13 -5z"/>
<path d="M274 5239 c-3 -6 2 -18 12 -27 17 -16 17 -16 5 0 -7 9 -10 22 -6 28
3 5 4 10 1 10 -3 0 -8 -5 -12 -11z"/>
<path d="M2503 5243 c9 -2 23 -2 30 0 6 3 -1 5 -18 5 -16 0 -22 -2 -12 -5z"/>
<path d="M2823 5243 c9 -2 23 -2 30 0 6 3 -1 5 -18 5 -16 0 -22 -2 -12 -5z"/>
<path d="M3078 5243 c7 -3 16 -2 19 1 4 3 -2 6 -13 5 -11 0 -14 -3 -6 -6z"/>
<path d="M18691 5233 c-1 -27 32 -63 57 -62 14 0 14 2 -3 9 -25 10 -41 28 -48
55 -4 18 -5 18 -6 -2z"/>
<path d="M430 5196 c0 -16 18 -31 27 -22 3 3 -2 12 -11 21 -14 14 -16 14 -16
1z"/>
<path d="M18768 5203 c7 -3 16 -2 19 1 4 3 -2 6 -13 5 -11 0 -14 -3 -6 -6z"/>
<path d="M531 5184 c0 -11 3 -14 6 -6 3 7 2 16 -1 19 -3 4 -6 -2 -5 -13z"/>
<path d="M628 5165 c-8 -18 -8 -31 0 -47 10 -21 10 -20 6 8 -4 21 -1 36 11 47
9 10 12 17 5 17 -6 0 -16 -11 -22 -25z"/>
<path d="M18662 5185 c4 -4 3 -14 -4 -22 -8 -11 -7 -12 6 -7 19 7 21 20 4 30
-7 4 -10 4 -6 -1z"/>
<path d="M16787 5163 c-12 -11 -8 -128 5 -141 7 -7 37 -12 68 -12 31 0 61 5
68 12 12 12 17 104 6 132 -5 12 -21 16 -73 16 -37 0 -71 -3 -74 -7z m121 -61
c2 -24 -1 -49 -7 -55 -10 -13 -60 -15 -79 -3 -13 8 -17 88 -5 100 4 4 25 6 48
4 40 -3 40 -3 43 -46z"/>
<path d="M16830 5110 c0 -5 14 -10 30 -10 17 0 30 5 30 10 0 6 -13 10 -30 10
-16 0 -30 -4 -30 -10z"/>
<path d="M753 5136 c-10 -11 -9 -15 2 -20 10 -4 15 1 15 14 0 23 -1 24 -17 6z"/>
<path d="M5670 5133 c-31 -16 -41 -29 -70 -93 -12 -26 45 -129 96 -175 7 -5
15 -23 19 -40 l7 -30 22 47 c12 26 39 65 59 87 41 46 54 95 38 144 -16 47 -38
64 -91 72 -33 4 -54 1 -80 -12z m132 -29 c42 -41 39 -94 -9 -163 -21 -29 -45
-66 -54 -82 l-17 -29 -6 24 c-3 14 -12 31 -19 38 -81 84 -99 163 -49 210 15
14 34 28 42 31 29 12 83 -3 112 -29z"/>
<path d="M18582 5132 c-9 -6 -7 -13 10 -27 13 -11 18 -13 11 -6 -6 7 -9 20 -6
27 6 16 3 17 -15 6z"/>
<path d="M18658 5118 c5 -5 16 -8 23 -6 8 3 3 7 -10 11 -17 4 -21 3 -13 -5z"/>
<path d="M706 5095 c4 -8 11 -15 16 -15 6 0 5 6 -2 15 -7 8 -14 15 -16 15 -2
0 -1 -7 2 -15z"/>
<path d="M18520 5090 c0 -5 5 -10 10 -10 6 0 10 5 10 10 0 6 -4 10 -10 10 -5
0 -10 -4 -10 -10z"/>
<path d="M18567 5049 c12 -12 24 -21 27 -18 2 2 -8 13 -22 23 l-27 19 22 -24z"/>
<path d="M5336 5044 c-10 -10 -16 -33 -16 -64 0 -64 16 -80 85 -80 81 0 85 3
85 70 0 75 -14 90 -85 90 -35 0 -59 -5 -69 -16z m118 -20 c9 -23 7 -67 -3 -83
-5 -8 -25 -14 -46 -14 -41 0 -55 14 -55 55 0 48 9 58 55 58 30 0 45 -5 49 -16z"/>
<path d="M5380 5000 c0 -5 11 -10 25 -10 14 0 25 5 25 10 0 6 -11 10 -25 10
-14 0 -25 -4 -25 -10z"/>
<path d="M16285 5020 c-8 -13 14 -32 30 -26 12 4 18 0 22 -14 l6 -21 14 21
c17 24 36 26 57 4 23 -22 20 -34 -9 -34 -14 0 -25 -4 -25 -10 0 -5 10 -9 21
-7 32 3 35 -21 5 -34 -22 -10 -29 -9 -46 6 -18 16 -20 16 -20 2 0 -10 -7 -17
-15 -17 -10 0 -15 10 -15 29 0 31 -25 49 -34 24 -3 -8 0 -27 7 -41 11 -24 18
-27 73 -30 82 -4 96 12 88 94 l-6 60 -75 -1 c-41 0 -76 -2 -78 -5z"/>
<path d="M18441 5014 c0 -11 3 -14 6 -6 3 7 2 16 -1 19 -3 4 -6 -2 -5 -13z"/>
<path d="M18475 5000 c-3 -6 1 -7 9 -4 18 7 21 14 7 14 -6 0 -13 -4 -16 -10z"/>
<path d="M18527 4980 c-3 -11 -3 -20 -1 -20 2 0 8 9 14 20 6 11 7 20 2 20 -6
0 -12 -9 -15 -20z"/>
<path d="M18488 4953 c7 -3 16 -2 19 1 4 3 -2 6 -13 5 -11 0 -14 -3 -6 -6z"/>
<path d="M5221 4846 c-7 -9 -11 -39 -9 -78 l3 -63 75 0 75 0 0 75 0 75 -66 3
c-48 2 -69 -1 -78 -12z m117 -54 c2 -24 -1 -49 -7 -55 -10 -13 -60 -15 -79 -3
-13 8 -17 88 -5 100 4 4 25 6 48 4 40 -3 40 -3 43 -46z"/>
<path d="M5260 4800 c0 -5 14 -10 30 -10 17 0 30 5 30 10 0 6 -13 10 -30 10
-16 0 -30 -4 -30 -10z"/>
<path d="M408 4803 c7 -3 16 -2 19 1 4 3 -2 6 -13 5 -11 0 -14 -3 -6 -6z"/>
<path d="M533 4725 c0 -33 2 -45 4 -27 2 18 2 45 0 60 -2 15 -4 0 -4 -33z"/>
<path d="M297 4763 c-2 -5 -1 -19 4 -33 7 -23 7 -23 8 8 1 31 -3 40 -12 25z"/>
<path d="M12 4740 c0 -14 2 -19 5 -12 2 6 2 18 0 25 -3 6 -5 1 -5 -13z"/>
<path d="M897 4743 c-2 -5 -1 -19 4 -33 7 -23 7 -23 8 8 1 31 -3 40 -12 25z"/>
<path d="M802 4720 c0 -14 2 -19 5 -12 2 6 2 18 0 25 -3 6 -5 1 -5 -13z"/>
<path d="M5600 4700 c0 -5 5 -10 11 -10 5 0 7 5 4 10 -3 6 -8 10 -11 10 -2 0
-4 -4 -4 -10z"/>
<path d="M5760 4700 c0 -5 5 -10 11 -10 5 0 7 5 4 10 -3 6 -8 10 -11 10 -2 0
-4 -4 -4 -10z"/>
<path d="M2020 4692 c0 -8 9 -25 20 -39 26 -33 26 -23 0 19 -11 18 -20 27 -20
20z"/>
<path d="M2121 4661 c-10 -6 -10 -10 -1 -16 13 -8 24 -1 19 14 -3 6 -10 7 -18
2z"/>
<path d="M8928 4663 c6 -2 18 -2 25 0 6 3 1 5 -13 5 -14 0 -19 -2 -12 -5z"/>
<path d="M5074 4646 c-12 -10 -23 -11 -31 -5 -8 7 -16 3 -27 -13 -22 -32 -20
-38 14 -38 20 0 30 5 30 15 0 8 14 21 30 30 17 9 30 18 30 20 0 10 -27 4 -46
-9z"/>
<path d="M17568 4623 c7 -3 16 -2 19 1 4 3 -2 6 -13 5 -11 0 -14 -3 -6 -6z"/>
<path d="M2160 4610 c0 -5 7 -10 16 -10 8 0 12 5 9 10 -3 6 -10 10 -16 10 -5
0 -9 -4 -9 -10z"/>
<path d="M11544 4606 c-44 -19 -64 -53 -64 -106 0 -39 7 -56 49 -112 27 -37
52 -80 56 -95 7 -28 7 -28 28 17 12 25 39 67 60 94 30 40 37 57 37 95 0 55
-20 88 -66 107 -41 17 -60 17 -100 0z m128 -32 c42 -41 39 -94 -9 -163 -21
-29 -45 -66 -54 -82 l-17 -29 -6 24 c-3 14 -12 31 -19 38 -81 84 -99 163 -49
210 15 14 34 28 42 31 29 12 83 -3 112 -29z"/>
<path d="M8821 4574 c0 -11 3 -14 6 -6 3 7 2 16 -1 19 -3 4 -6 -2 -5 -13z"/>
<path d="M9041 4574 c0 -11 3 -14 6 -6 3 7 2 16 -1 19 -3 4 -6 -2 -5 -13z"/>
<path d="M16683 4583 c9 -2 25 -2 35 0 9 3 1 5 -18 5 -19 0 -27 -2 -17 -5z"/>
<path d="M16898 4583 c7 -3 16 -2 19 1 4 3 -2 6 -13 5 -11 0 -14 -3 -6 -6z"/>
<path d="M17393 4583 c9 -2 23 -2 30 0 6 3 -1 5 -18 5 -16 0 -22 -2 -12 -5z"/>
<path d="M2183 4535 c-3 -9 -3 -18 -1 -21 3 -3 8 4 11 16 6 23 -1 27 -10 5z"/>
<path d="M2230 4536 c7 -7 13 -7 20 0 6 6 3 10 -10 10 -13 0 -16 -4 -10 -10z"/>
<path d="M8821 4524 c0 -11 3 -14 6 -6 3 7 2 16 -1 19 -3 4 -6 -2 -5 -13z"/>
<path d="M9041 4524 c0 -11 3 -14 6 -6 3 7 2 16 -1 19 -3 4 -6 -2 -5 -13z"/>
<path d="M17223 4533 c9 -2 23 -2 30 0 6 3 -1 5 -18 5 -16 0 -22 -2 -12 -5z"/>
<path d="M2267 4502 c-19 -21 -22 -38 -7 -47 6 -3 7 1 4 10 -4 9 2 25 11 35
10 11 16 20 13 20 -3 0 -12 -8 -21 -18z"/>
<path d="M2336 4501 c-12 -5 -15 -10 -9 -14 6 -4 16 0 23 8 14 17 13 17 -14 6z"/>
<path d="M10448 4503 c6 -2 18 -2 25 0 6 3 1 5 -13 5 -14 0 -19 -2 -12 -5z"/>
<path d="M2285 4440 c3 -5 8 -10 11 -10 2 0 4 5 4 10 0 6 -5 10 -11 10 -5 0
-7 -4 -4 -10z"/>
<path d="M2334 4425 c-3 -8 -4 -20 -2 -27 3 -7 7 -1 10 15 6 29 1 36 -8 12z"/>
<path d="M2374 4422 c15 -17 22 -19 28 -10 4 7 8 18 8 23 0 6 -4 4 -9 -4 -8
-13 -12 -13 -28 -1 -16 13 -16 12 1 -8z"/>
<path d="M2360 4379 c0 -5 5 -7 10 -4 6 3 10 8 10 11 0 2 -4 4 -10 4 -5 0 -10
-5 -10 -11z"/>
<path d="M2454 4358 l-19 -23 23 19 c21 18 27 26 19 26 -2 0 -12 -10 -23 -22z"/>
<path d="M2522 4360 c14 -22 24 -19 15 5 -4 8 -11 15 -17 15 -6 0 -6 -7 2 -20z"/>
<path d="M8941 4363 c-1 -6 -4 -20 -7 -30 -5 -17 -5 -17 6 0 6 10 9 23 6 30
-3 9 -5 9 -5 0z"/>
<path d="M12348 4363 c7 -3 16 -2 19 1 4 3 -2 6 -13 5 -11 0 -14 -3 -6 -6z"/>
<path d="M12573 4363 c9 -2 25 -2 35 0 9 3 1 5 -18 5 -19 0 -27 -2 -17 -5z"/>
<path d="M13103 4363 c9 -2 25 -2 35 0 9 3 1 5 -18 5 -19 0 -27 -2 -17 -5z"/>
<path d="M2440 4316 c0 -8 4 -17 9 -20 5 -4 7 3 4 14 -6 23 -13 26 -13 6z"/>
<path d="M4330 4304 c0 -8 5 -12 10 -9 6 4 8 11 5 16 -9 14 -15 11 -15 -7z"/>
<path d="M2521 4276 c-13 -14 -21 -31 -18 -38 4 -10 6 -10 6 2 1 8 13 24 29
37 15 12 22 22 16 23 -6 0 -21 -11 -33 -24z"/>
<path d="M15080 4285 c0 -8 -15 -22 -32 -31 -18 -10 -28 -19 -21 -21 7 -2 21
1 33 7 11 6 29 9 39 5 12 -4 21 2 29 20 16 35 16 35 -18 35 -20 0 -30 -5 -30
-15z"/>
<path d="M2629 4218 c7 -9 10 -22 6 -28 -3 -5 1 -10 9 -10 22 0 20 14 -6 36
-17 14 -20 15 -9 2z"/>
<path d="M2530 4209 c0 -5 5 -7 10 -4 6 3 10 8 10 11 0 2 -4 4 -10 4 -5 0 -10
-5 -10 -11z"/>
<path d="M2566 4171 c-3 -4 4 -17 17 -27 16 -14 18 -15 9 -2 -11 14 -10 18 5
27 17 10 16 10 -4 11 -12 0 -24 -4 -27 -9z"/>
<path d="M2623 4115 c-3 -9 -3 -18 -1 -21 3 -3 8 4 11 16 6 23 -1 27 -10 5z"/>
<path d="M2667 4103 c3 -7 9 -13 13 -13 4 0 12 6 18 13 8 9 5 12 -13 12 -14 0
-21 -5 -18 -12z"/>
<path d="M11498 4093 c6 -2 18 -2 25 0 6 3 1 5 -13 5 -14 0 -19 -2 -12 -5z"/>
<path d="M11983 4093 c9 -2 23 -2 30 0 6 3 -1 5 -18 5 -16 0 -22 -2 -12 -5z"/>
<path d="M12483 4093 c9 -2 23 -2 30 0 6 3 -1 5 -18 5 -16 0 -22 -2 -12 -5z"/>
<path d="M2650 4069 c0 -5 5 -7 10 -4 6 3 10 8 10 11 0 2 -4 4 -10 4 -5 0 -10
-5 -10 -11z"/>
<path d="M15630 4055 c0 -32 12 -32 27 0 10 22 9 25 -8 25 -14 0 -19 -7 -19
-25z"/>
<path d="M15794 4048 l1 -33 -69 -2 c-38 -1 -71 -4 -73 -7 -10 -9 38 -46 60
-46 30 0 142 71 157 99 10 20 8 21 -33 21 -42 0 -43 -1 -43 -32z"/>
<path d="M2765 4044 c-9 -15 -12 -23 -6 -20 11 7 35 46 28 46 -3 0 -12 -12
-22 -26z"/>
<path d="M2825 4010 c-3 -5 -1 -10 4 -10 6 0 11 5 11 10 0 6 -2 10 -4 10 -3 0
-8 -4 -11 -10z"/>
<path d="M2736 3992 c-9 -27 -5 -34 10 -24 7 4 8 16 4 27 -7 19 -7 19 -14 -3z"/>
<path d="M2815 3930 c-10 -11 -16 -22 -14 -24 2 -2 12 7 22 20 22 29 17 32 -8
4z"/>
<path d="M2807 3879 c7 -7 15 -10 18 -7 3 3 -2 9 -12 12 -14 6 -15 5 -6 -5z"/>
<path d="M2876 3851 c-10 -11 -16 -26 -13 -33 4 -10 6 -10 6 1 1 8 8 23 18 33
9 10 14 18 11 18 -3 0 -13 -9 -22 -19z"/>
<path d="M2923 3775 c-3 -9 -3 -18 -1 -21 3 -3 8 4 11 16 6 23 -1 27 -10 5z"/>
<path d="M15585 3781 c-3 -5 -1 -12 5 -16 5 -3 10 1 10 9 0 18 -6 21 -15 7z"/>
<path d="M15680 3775 c0 -8 5 -15 10 -15 6 0 10 7 10 15 0 8 -4 15 -10 15 -5
0 -10 -7 -10 -15z"/>
<path d="M15768 3783 c7 -3 16 -2 19 1 4 3 -2 6 -13 5 -11 0 -14 -3 -6 -6z"/>
<path d="M15852 3733 l-2 -63 38 2 c36 1 36 1 5 5 -31 4 -32 5 -36 61 l-3 57
-2 -62z"/>
<path d="M2967 3763 c3 -7 9 -13 13 -13 4 0 12 6 18 13 8 9 5 12 -13 12 -14 0
-21 -5 -18 -12z"/>
<path d="M2950 3729 c0 -5 5 -7 10 -4 6 3 10 8 10 11 0 2 -4 4 -10 4 -5 0 -10
-5 -10 -11z"/>
<path d="M3357 3729 c-9 -6 -26 -8 -36 -4 -12 4 -21 -2 -29 -20 -16 -35 -16
-35 18 -35 20 0 30 5 30 15 0 8 14 21 30 30 17 9 30 18 30 20 0 8 -24 5 -43
-6z"/>
<path d="M13704 3708 c-2 -3 -1 -13 2 -22 4 -11 11 -13 30 -6 23 9 24 8 24
-40 0 -38 -4 -50 -15 -50 -10 0 -15 10 -15 29 0 33 -25 49 -33 21 -3 -10 1
-29 7 -42 10 -20 20 -23 83 -26 64 -3 73 -1 83 18 7 12 8 35 3 58 -4 20 -6 44
-5 52 2 13 -11 16 -79 15 -44 0 -83 -3 -85 -7z m130 -24 c25 -10 20 -36 -6
-32 -15 2 -23 -2 -23 -12 0 -10 8 -14 23 -12 28 4 30 -24 2 -33 -48 -15 -80
43 -44 79 17 18 24 19 48 10z"/>
<path d="M15692 3695 c0 -16 2 -22 5 -12 2 9 2 23 0 30 -3 6 -5 -1 -5 -18z"/>
<path d="M463 3693 c9 -2 23 -2 30 0 6 3 -1 5 -18 5 -16 0 -22 -2 -12 -5z"/>
<path d="M15630 3690 c0 -5 5 -10 10 -10 6 0 10 5 10 10 0 6 -4 10 -10 10 -5
0 -10 -4 -10 -10z"/>
<path d="M233 3683 c9 -2 25 -2 35 0 9 3 1 5 -18 5 -19 0 -27 -2 -17 -5z"/>
<path d="M15768 3673 c7 -3 16 -2 19 1 4 3 -2 6 -13 5 -11 0 -14 -3 -6 -6z"/>
<path d="M7293 3663 c9 -2 23 -2 30 0 6 3 -1 5 -18 5 -16 0 -22 -2 -12 -5z"/>
<path d="M7932 3614 c1 -47 2 -51 5 -19 3 22 9 42 14 46 6 3 3 11 -6 19 -13
11 -15 6 -13 -46z"/>
<path d="M8508 3663 c7 -3 16 -2 19 1 4 3 -2 6 -13 5 -11 0 -14 -3 -6 -6z"/>
<path d="M8779 3658 c-3 -7 -2 -31 1 -53 l6 -40 5 43 c5 42 -4 77 -12 50z"/>
<path d="M7430 3646 c0 -2 11 -6 25 -8 14 -3 25 -1 25 3 0 5 -11 9 -25 9 -14
0 -25 -2 -25 -4z"/>
<path d="M7511 3646 c12 -10 59 -15 59 -6 0 5 -14 10 -32 10 -17 0 -29 -2 -27
-4z"/>
<path d="M7383 3600 c0 -25 2 -35 4 -22 2 12 2 32 0 45 -2 12 -4 2 -4 -23z"/>
<path d="M8681 3624 c0 -11 3 -14 6 -6 3 7 2 16 -1 19 -3 4 -6 -2 -5 -13z"/>
<path d="M7825 3610 c-19 -8 -19 -9 3 -9 12 -1 22 4 22 9 0 6 -1 10 -2 9 -2 0
-12 -4 -23 -9z"/>
<path d="M8615 3610 l-30 -8 33 -1 c17 0 32 4 32 9 0 6 -1 9 -2 9 -2 -1 -16
-5 -33 -9z"/>
<path d="M8925 3610 c-16 -7 -17 -9 -3 -9 9 -1 19 -11 21 -23 3 -17 5 -14 6
10 0 17 0 32 -1 31 -2 0 -12 -4 -23 -9z"/>
<path d="M9030 3608 c0 -4 14 -8 30 -8 17 0 30 2 30 4 0 2 -13 6 -30 8 -16 3
-30 1 -30 -4z"/>
<path d="M7283 3603 c9 -2 25 -2 35 0 9 3 1 5 -18 5 -19 0 -27 -2 -17 -5z"/>
<path d="M7608 3603 c12 -2 30 -2 40 0 9 3 -1 5 -23 4 -22 0 -30 -2 -17 -4z"/>
<path d="M8078 3603 c6 -2 18 -2 25 0 6 3 1 5 -13 5 -14 0 -19 -2 -12 -5z"/>
<path d="M8000 3576 c0 -9 5 -16 10 -16 6 0 10 4 10 9 0 6 -4 13 -10 16 -5 3
-10 -1 -10 -9z"/>
<path d="M3052 3564 c-16 -11 -27 -13 -35 -6 -9 8 -17 3 -29 -18 -19 -33 -15
-40 24 -40 20 0 28 5 28 18 0 10 11 25 25 32 14 7 25 17 25 22 0 12 -13 10
-38 -8z"/>
<path d="M15538 3573 c7 -3 16 -2 19 1 4 3 -2 6 -13 5 -11 0 -14 -3 -6 -6z"/>
<path d="M15598 3573 c7 -3 16 -2 19 1 4 3 -2 6 -13 5 -11 0 -14 -3 -6 -6z"/>
<path d="M15658 3573 c7 -3 16 -2 19 1 4 3 -2 6 -13 5 -11 0 -14 -3 -6 -6z"/>
<path d="M7430 3559 c0 -5 11 -9 25 -9 14 0 25 2 25 4 0 2 -11 6 -25 8 -14 3
-25 1 -25 -3z"/>
<path d="M7514 3559 c-3 -5 9 -9 25 -9 17 0 31 2 31 4 0 8 -51 13 -56 5z"/>
<path d="M15610 3550 c-13 -8 -12 -10 3 -10 9 0 17 5 17 10 0 12 -1 12 -20 0z"/>
<path d="M15810 3548 c0 -4 9 -8 20 -8 11 0 20 4 20 8 0 4 -9 8 -20 8 -11 0
-20 -4 -20 -8z"/>
<path d="M4370 3475 c0 -32 3 -41 13 -37 4 1 15 -14 23 -34 18 -44 31 -38 15
7 -7 21 -8 36 -2 42 6 6 1 17 -14 28 -30 25 -35 24 -35 -6z"/>
<path d="M7390 3446 c0 -2 9 -6 20 -9 11 -3 20 -1 20 4 0 5 -9 9 -20 9 -11 0
-20 -2 -20 -4z"/>
<path d="M7468 3443 c6 -2 18 -2 25 0 6 3 1 5 -13 5 -14 0 -19 -2 -12 -5z"/>
<path d="M7698 3443 c7 -3 16 -2 19 1 4 3 -2 6 -13 5 -11 0 -14 -3 -6 -6z"/>
<path d="M7270 3420 c0 -6 7 -10 15 -10 8 0 15 2 15 4 0 2 -7 6 -15 10 -8 3
-15 1 -15 -4z"/>
<path d="M7525 3420 c-3 -5 1 -10 10 -10 9 0 13 5 10 10 -3 6 -8 10 -10 10 -2
0 -7 -4 -10 -10z"/>
<path d="M7715 3420 c-3 -5 -1 -10 4 -10 6 0 11 5 11 10 0 6 -2 10 -4 10 -3 0
-8 -4 -11 -10z"/>
<path d="M11508 3413 c6 -2 18 -2 25 0 6 3 1 5 -13 5 -14 0 -19 -2 -12 -5z"/>
<path d="M12438 3413 c6 -2 18 -2 25 0 6 3 1 5 -13 5 -14 0 -19 -2 -12 -5z"/>
<path d="M11940 3401 c0 -5 7 -11 14 -14 10 -4 13 -1 9 9 -6 15 -23 19 -23 5z"/>
<path d="M12160 3390 c0 -5 7 -10 16 -10 8 0 12 5 9 10 -3 6 -10 10 -16 10 -5
0 -9 -4 -9 -10z"/>
<path d="M7398 3383 c6 -2 18 -2 25 0 6 3 1 5 -13 5 -14 0 -19 -2 -12 -5z"/>
<path d="M7468 3383 c6 -2 18 -2 25 0 6 3 1 5 -13 5 -14 0 -19 -2 -12 -5z"/>
<path d="M11603 3345 c0 -27 2 -38 4 -22 2 15 2 37 0 50 -2 12 -4 0 -4 -28z"/>
<path d="M12763 3345 c0 -27 2 -38 4 -22 2 15 2 37 0 50 -2 12 -4 0 -4 -28z"/>
<path d="M11513 3363 c9 -2 23 -2 30 0 6 3 -1 5 -18 5 -16 0 -22 -2 -12 -5z"/>
<path d="M12250 3356 c0 -2 7 -6 15 -10 8 -3 15 -1 15 4 0 6 -7 10 -15 10 -8
0 -15 -2 -15 -4z"/>
<path d="M12424 3351 c5 -8 56 -3 56 5 0 2 -14 4 -31 4 -16 0 -28 -4 -25 -9z"/>
<path d="M7935 3320 c-3 -5 1 -10 10 -10 9 0 13 5 10 10 -3 6 -8 10 -10 10 -2
0 -7 -4 -10 -10z"/>
<path d="M12005 3320 c3 -5 10 -10 16 -10 5 0 9 5 9 10 0 6 -7 10 -16 10 -8 0
-12 -4 -9 -10z"/>
<path d="M11204 3210 c0 -63 1 -89 3 -57 2 31 2 83 0 115 -2 31 -3 5 -3 -58z"/>
<path d="M11525 3310 l-30 -8 27 -1 c15 0 30 4 33 9 3 6 5 9 3 9 -2 -1 -16 -5
-33 -9z"/>
<path d="M11728 3303 c7 -3 16 -2 19 1 4 3 -2 6 -13 5 -11 0 -14 -3 -6 -6z"/>
<path d="M12088 3303 c7 -3 16 -2 19 1 4 3 -2 6 -13 5 -11 0 -14 -3 -6 -6z"/>
<path d="M7388 3293 c7 -3 16 -2 19 1 4 3 -2 6 -13 5 -11 0 -14 -3 -6 -6z"/>
<path d="M7803 3293 c9 -2 23 -2 30 0 6 3 -1 5 -18 5 -16 0 -22 -2 -12 -5z"/>
<path d="M8048 3293 c7 -3 16 -2 19 1 4 3 -2 6 -13 5 -11 0 -14 -3 -6 -6z"/>
<path d="M8148 3293 c6 -2 18 -2 25 0 6 3 1 5 -13 5 -14 0 -19 -2 -12 -5z"/>
<path d="M2457 3269 c-79 -42 -81 -127 -5 -225 25 -33 49 -72 52 -88 6 -23 9
-27 17 -15 5 7 9 21 9 29 0 8 23 44 50 79 44 56 50 69 50 111 0 53 -23 91 -70
115 -38 20 -57 18 -103 -6z m135 -35 c43 -42 39 -95 -12 -165 -22 -30 -45 -66
-52 -80 l-12 -27 -15 28 c-9 16 -33 52 -53 81 -49 69 -52 122 -10 161 15 14
34 28 42 31 29 12 83 -3 112 -29z"/>
<path d="M7325 3260 c3 -5 8 -10 11 -10 2 0 4 5 4 10 0 6 -5 10 -11 10 -5 0
-7 -4 -4 -10z"/>
<path d="M7458 3253 c7 -3 16 -2 19 1 4 3 -2 6 -13 5 -11 0 -14 -3 -6 -6z"/>
<path d="M7538 3253 c7 -3 16 -2 19 1 4 3 -2 6 -13 5 -11 0 -14 -3 -6 -6z"/>
<path d="M7728 3253 c7 -3 16 -2 19 1 4 3 -2 6 -13 5 -11 0 -14 -3 -6 -6z"/>
<path d="M7808 3253 c7 -3 16 -2 19 1 4 3 -2 6 -13 5 -11 0 -14 -3 -6 -6z"/>
<path d="M8158 3253 c7 -3 16 -2 19 1 4 3 -2 6 -13 5 -11 0 -14 -3 -6 -6z"/>
<path d="M12438 3213 c7 -3 16 -2 19 1 4 3 -2 6 -13 5 -11 0 -14 -3 -6 -6z"/>
<path d="M12530 3216 c0 -2 7 -7 16 -10 8 -3 12 -2 9 4 -6 10 -25 14 -25 6z"/>
<path d="M12628 3213 c7 -3 16 -2 19 1 4 3 -2 6 -13 5 -11 0 -14 -3 -6 -6z"/>
<path d="M12928 3213 c7 -3 16 -2 19 1 4 3 -2 6 -13 5 -11 0 -14 -3 -6 -6z"/>
<path d="M13258 3213 c7 -3 16 -2 19 1 4 3 -2 6 -13 5 -11 0 -14 -3 -6 -6z"/>
<path d="M12500 3199 c0 -5 5 -7 10 -4 6 3 10 8 10 11 0 2 -4 4 -10 4 -5 0
-10 -5 -10 -11z"/>
<path d="M12742 3180 c0 -19 2 -27 5 -17 2 9 2 25 0 35 -3 9 -5 1 -5 -18z"/>
<path d="M13193 3165 c0 -27 2 -38 4 -22 2 15 2 37 0 50 -2 12 -4 0 -4 -28z"/>
<path d="M11635 3180 c-16 -7 -17 -9 -3 -9 10 -1 18 -11 21 -28 3 -23 4 -21 6
10 0 20 0 37 -1 36 -2 0 -12 -4 -23 -9z"/>
<path d="M11760 3180 l-35 -7 38 -2 c20 0 37 4 37 9 0 6 -1 9 -2 9 -2 -1 -19
-5 -38 -9z"/>
<path d="M12440 3180 l-25 -8 28 -1 c15 -1 27 4 27 9 0 6 -1 10 -2 9 -2 -1
-14 -5 -28 -9z"/>
<path d="M12630 3180 c-23 -7 -23 -8 -3 -9 16 -1 23 -9 26 -28 3 -23 4 -21 6
10 0 20 0 37 -1 36 -2 -1 -14 -5 -28 -9z"/>
<path d="M12935 3180 c-19 -8 -19 -9 3 -9 12 -1 22 4 22 9 0 6 -1 10 -2 9 -2
0 -12 -4 -23 -9z"/>
<path d="M5008 3173 c6 -2 18 -2 25 0 6 3 1 5 -13 5 -14 0 -19 -2 -12 -5z"/>
<path d="M5943 3173 c9 -2 23 -2 30 0 6 3 -1 5 -18 5 -16 0 -22 -2 -12 -5z"/>
<path d="M6028 3173 c6 -2 18 -2 25 0 6 3 1 5 -13 5 -14 0 -19 -2 -12 -5z"/>
<path d="M12688 3173 c6 -2 18 -2 25 0 6 3 1 5 -13 5 -14 0 -19 -2 -12 -5z"/>
<path d="M13258 3173 c6 -2 18 -2 25 0 6 3 1 5 -13 5 -14 0 -19 -2 -12 -5z"/>
<path d="M12290 3138 c0 -13 8 -18 29 -18 17 0 32 4 35 9 3 4 -6 6 -20 3 -16
-3 -30 1 -35 9 -7 11 -9 10 -9 -3z"/>
<path d="M11748 3128 c5 -5 16 -8 23 -6 8 3 3 7 -10 11 -17 4 -21 3 -13 -5z"/>
<path d="M13025 3130 c-16 -7 -17 -9 -3 -9 9 -1 20 4 23 9 7 11 7 11 -20 0z"/>
<path d="M5938 3123 c6 -2 18 -2 25 0 6 3 1 5 -13 5 -14 0 -19 -2 -12 -5z"/>
<path d="M11618 3123 c7 -3 16 -2 19 1 4 3 -2 6 -13 5 -11 0 -14 -3 -6 -6z"/>
<path d="M12428 3123 c7 -3 16 -2 19 1 4 3 -2 6 -13 5 -11 0 -14 -3 -6 -6z"/>
<path d="M12618 3123 c7 -3 16 -2 19 1 4 3 -2 6 -13 5 -11 0 -14 -3 -6 -6z"/>
<path d="M12778 3123 c7 -3 16 -2 19 1 4 3 -2 6 -13 5 -11 0 -14 -3 -6 -6z"/>
<path d="M12918 3123 c7 -3 16 -2 19 1 4 3 -2 6 -13 5 -11 0 -14 -3 -6 -6z"/>
<path d="M13248 3123 c7 -3 16 -2 19 1 4 3 -2 6 -13 5 -11 0 -14 -3 -6 -6z"/>
<path d="M11668 3033 c7 -3 16 -2 19 1 4 3 -2 6 -13 5 -11 0 -14 -3 -6 -6z"/>
<path d="M12088 3033 c7 -3 16 -2 19 1 4 3 -2 6 -13 5 -11 0 -14 -3 -6 -6z"/>
<path d="M12148 3033 c7 -3 16 -2 19 1 4 3 -2 6 -13 5 -11 0 -14 -3 -6 -6z"/>
<path d="M3585 3020 c-3 -5 -1 -10 4 -10 6 0 11 5 11 10 0 6 -2 10 -4 10 -3 0
-8 -4 -11 -10z"/>
<path d="M11490 3010 c0 -6 7 -10 15 -10 8 0 15 2 15 4 0 2 -7 6 -15 10 -8 3
-15 1 -15 -4z"/>
<path d="M12225 3010 c-3 -5 -1 -10 4 -10 6 0 11 5 11 10 0 6 -2 10 -4 10 -3
0 -8 -4 -11 -10z"/>
<path d="M3775 3000 c4 -6 11 -8 16 -5 14 9 11 15 -7 15 -8 0 -12 -5 -9 -10z"/>
<path d="M3243 2960 c0 -25 2 -35 4 -22 2 12 2 32 0 45 -2 12 -4 2 -4 -23z"/>
<path d="M3993 2940 c0 -36 2 -50 4 -32 2 17 2 47 0 65 -2 17 -4 3 -4 -33z"/>
<path d="M2781 2974 c0 -11 3 -14 6 -6 3 7 2 16 -1 19 -3 4 -6 -2 -5 -13z"/>
<path d="M3063 2963 c9 -2 25 -2 35 0 9 3 1 5 -18 5 -19 0 -27 -2 -17 -5z"/>
<path d="M3338 2963 c7 -3 16 -2 19 1 4 3 -2 6 -13 5 -11 0 -14 -3 -6 -6z"/>
<path d="M3478 2963 c7 -3 16 -2 19 1 4 3 -2 6 -13 5 -11 0 -14 -3 -6 -6z"/>
<path d="M4568 2963 c7 -3 16 -2 19 1 4 3 -2 6 -13 5 -11 0 -14 -3 -6 -6z"/>
<path d="M1344 2879 c-16 -17 -16 -22 -4 -29 22 -14 50 -12 50 4 0 8 14 17 30
21 17 4 30 11 30 16 0 11 -17 11 -45 0 -11 -5 -25 -5 -31 0 -7 6 -18 1 -30
-12z"/>
<path d="M10856 2864 c-64 -23 -95 -61 -111 -131 -8 -39 28 -126 74 -178 15
-18 39 -56 52 -83 13 -28 29 -51 34 -52 6 0 16 15 23 33 7 17 39 68 72 112 69
93 78 125 56 193 -20 59 -47 86 -105 107 -51 18 -45 18 -95 -1z"/>
<path d="M4091 2844 c0 -11 3 -14 6 -6 3 7 2 16 -1 19 -3 4 -6 -2 -5 -13z"/>
<path d="M5408 2853 c7 -3 16 -2 19 1 4 3 -2 6 -13 5 -11 0 -14 -3 -6 -6z"/>
<path d="M3563 2780 c0 -25 2 -35 4 -22 2 12 2 32 0 45 -2 12 -4 2 -4 -23z"/>
<path d="M5938 2813 c7 -3 16 -2 19 1 4 3 -2 6 -13 5 -11 0 -14 -3 -6 -6z"/>
<path d="M15303 2723 c9 -2 25 -2 35 0 9 3 1 5 -18 5 -19 0 -27 -2 -17 -5z"/>
<path d="M11116 2682 c-3 -5 10 -8 29 -8 18 1 31 4 28 9 -6 10 -51 9 -57 -1z"/>
<path d="M528 2645 c-69 -47 -74 -135 -13 -202 19 -21 38 -46 41 -55 3 -10 10
-18 15 -18 6 0 -5 21 -23 46 -51 71 -58 86 -58 127 0 75 63 121 134 97 48 -16
69 -52 64 -109 -4 -43 -24 -79 -94 -164 -16 -20 -19 -47 -4 -47 6 0 10 7 10
15 0 15 22 51 74 122 53 73 39 156 -33 192 -52 27 -68 26 -113 -4z"/>
<path d="M11785 2660 c-3 -5 3 -10 15 -10 12 0 18 5 15 10 -3 6 -10 10 -15 10
-5 0 -12 -4 -15 -10z"/>
<path d="M15408 2663 c7 -3 16 -2 19 1 4 3 -2 6 -13 5 -11 0 -14 -3 -6 -6z"/>
<path d="M15788 2663 c6 -2 18 -2 25 0 6 3 1 5 -13 5 -14 0 -19 -2 -12 -5z"/>
<path d="M15933 2663 c9 -2 23 -2 30 0 6 3 -1 5 -18 5 -16 0 -22 -2 -12 -5z"/>
<path d="M16038 2663 c7 -3 16 -2 19 1 4 3 -2 6 -13 5 -11 0 -14 -3 -6 -6z"/>
<path d="M16253 2663 c9 -2 25 -2 35 0 9 3 1 5 -18 5 -19 0 -27 -2 -17 -5z"/>
<path d="M16793 2663 c9 -2 25 -2 35 0 9 3 1 5 -18 5 -19 0 -27 -2 -17 -5z"/>
<path d="M11273 2615 c0 -27 2 -38 4 -22 2 15 2 37 0 50 -2 12 -4 0 -4 -28z"/>
<path d="M11338 2653 c7 -3 16 -2 19 1 4 3 -2 6 -13 5 -11 0 -14 -3 -6 -6z"/>
<path d="M11416 2651 c-4 -5 3 -7 14 -4 23 6 26 13 6 13 -8 0 -17 -4 -20 -9z"/>
<path d="M11143 2633 c-18 -2 -33 -8 -33 -12 0 -13 59 -8 64 6 3 7 4 12 3 11
-1 0 -17 -3 -34 -5z"/>
<path d="M11446 2631 c-18 -7 -18 -8 -2 -14 11 -4 16 -13 12 -22 -3 -8 -1 -17
4 -20 6 -4 10 9 10 29 0 20 -1 36 -2 35 -2 0 -12 -4 -22 -8z"/>
<path d="M11911 2614 c0 -11 3 -14 6 -6 3 7 2 16 -1 19 -3 4 -6 -2 -5 -13z"/>
<path d="M4338 2603 c7 -3 16 -2 19 1 4 3 -2 6 -13 5 -11 0 -14 -3 -6 -6z"/>
<path d="M11228 2578 c5 -5 16 -8 23 -6 8 3 3 7 -10 11 -17 4 -21 3 -13 -5z"/>
<path d="M11580 2579 c0 -5 5 -7 10 -4 6 3 10 8 10 11 0 2 -4 4 -10 4 -5 0
-10 -5 -10 -11z"/>
<path d="M11338 2573 c7 -3 16 -2 19 1 4 3 -2 6 -13 5 -11 0 -14 -3 -6 -6z"/>
<path d="M120 2520 c0 -28 2 -30 20 -20 11 6 20 15 20 20 0 5 -9 14 -20 20
-18 10 -20 8 -20 -20z"/>
<path d="M13176 2503 c-6 -14 -5 -15 5 -6 7 7 10 15 7 18 -3 3 -9 -2 -12 -12z"/>
<path d="M15268 2513 c7 -3 16 -2 19 1 4 3 -2 6 -13 5 -11 0 -14 -3 -6 -6z"/>
<path d="M16268 2513 c7 -3 16 -2 19 1 4 3 -2 6 -13 5 -11 0 -14 -3 -6 -6z"/>
<path d="M16478 2513 c7 -3 16 -2 19 1 4 3 -2 6 -13 5 -11 0 -14 -3 -6 -6z"/>
<path d="M15653 2463 c9 -2 23 -2 30 0 6 3 -1 5 -18 5 -16 0 -22 -2 -12 -5z"/>
<path d="M13176 2443 c-6 -14 -5 -15 5 -6 7 7 10 15 7 18 -3 3 -9 -2 -12 -12z"/>
<path d="M13236 2423 c-11 -11 -6 -23 9 -23 8 0 15 4 15 9 0 13 -16 22 -24 14z"/>
<path d="M13255 2350 c3 -5 8 -10 11 -10 2 0 4 5 4 10 0 6 -5 10 -11 10 -5 0
-7 -4 -4 -10z"/>
<path d="M13235 2279 c-11 -16 -1 -19 13 -3 7 8 8 14 3 14 -5 0 -13 -5 -16
-11z"/>
<path d="M1843 2210 c0 -36 2 -50 4 -32 2 17 2 47 0 65 -2 17 -4 3 -4 -33z"/>
<path d="M370 2247 c14 -8 27 -12 30 -10 7 6 -23 23 -40 23 -8 0 -4 -6 10 -13z"/>
<path d="M682 2203 c1 -51 2 -53 5 -15 3 26 8 40 15 36 6 -4 6 2 -1 15 -18 32
-21 26 -19 -36z"/>
<path d="M1339 2243 c-12 -16 -12 -17 1 -7 8 6 22 14 30 17 13 5 12 6 -1 6 -9
1 -23 -7 -30 -16z"/>
<path d="M483 2200 c0 -25 2 -35 4 -22 2 12 2 32 0 45 -2 12 -4 2 -4 -23z"/>
<path d="M1628 2228 c9 -9 15 -9 24 0 9 9 7 12 -12 12 -19 0 -21 -3 -12 -12z"/>
<path d="M322 2205 c0 -16 2 -22 5 -12 2 9 2 23 0 30 -3 6 -5 -1 -5 -18z"/>
<path d="M890 2219 c0 -5 5 -7 10 -4 6 3 10 8 10 11 0 2 -4 4 -10 4 -5 0 -10
-5 -10 -11z"/>
<path d="M1533 2190 c0 -25 2 -35 4 -22 2 12 2 32 0 45 -2 12 -4 2 -4 -23z"/>
<path d="M1691 2214 c0 -11 3 -14 6 -6 3 7 2 16 -1 19 -3 4 -6 -2 -5 -13z"/>
<path d="M13292 2214 c-12 -8 -22 -23 -21 -32 0 -13 2 -12 9 4 10 25 33 36 58
28 14 -5 15 -4 2 5 -20 14 -22 14 -48 -5z"/>
<path d="M1437 2207 c-5 -14 0 -17 28 -17 27 0 35 4 34 18 0 10 -3 12 -6 5 -6
-16 -40 -17 -45 -1 -3 7 -7 6 -11 -5z"/>
<path d="M835 2200 c-19 -8 -19 -9 3 -9 12 -1 22 4 22 9 0 6 -1 10 -2 9 -2 0
-12 -4 -23 -9z"/>
<path d="M992 2190 c0 -14 2 -19 5 -12 2 6 2 18 0 25 -3 6 -5 1 -5 -13z"/>
<path d="M1092 2190 c0 -14 2 -19 5 -12 2 6 2 18 0 25 -3 6 -5 1 -5 -13z"/>
<path d="M1780 2201 l-25 -7 28 -6 c19 -4 27 -1 27 8 0 8 -1 14 -2 13 -2 -1
-14 -4 -28 -8z"/>
<path d="M628 2193 c7 -3 16 -2 19 1 4 3 -2 6 -13 5 -11 0 -14 -3 -6 -6z"/>
<path d="M751 2192 c-1 -7 -6 -10 -12 -6 -7 4 -6 -3 2 -17 11 -21 14 -21 17
-6 2 9 1 23 -1 30 -4 9 -6 9 -6 -1z"/>
<path d="M1213 2193 c9 -2 23 -2 30 0 6 3 -1 5 -18 5 -16 0 -22 -2 -12 -5z"/>
<path d="M1230 2160 c0 -5 5 -10 11 -10 5 0 7 5 4 10 -3 6 -8 10 -11 10 -2 0
-4 -4 -4 -10z"/>
<path d="M1790 2160 c0 -5 5 -10 10 -10 6 0 10 5 10 10 0 6 -4 10 -10 10 -5 0
-10 -4 -10 -10z"/>
<path d="M13290 2150 c0 -5 7 -7 15 -4 8 4 15 8 15 10 0 2 -7 4 -15 4 -8 0
-15 -4 -15 -10z"/>
<path d="M9528 2143 c6 -2 18 -2 25 0 6 3 1 5 -13 5 -14 0 -19 -2 -12 -5z"/>
<path d="M13316 2104 c-5 -14 -4 -15 9 -4 17 14 19 20 6 20 -5 0 -12 -7 -15
-16z"/>
<path d="M13364 2090 c0 -15 4 -16 18 -9 10 5 18 13 18 16 0 3 -3 3 -7 0 -3
-4 -11 -3 -17 3 -8 6 -12 3 -12 -10z"/>
<path d="M423 2035 c0 -38 2 -53 4 -32 2 20 2 52 0 70 -2 17 -4 1 -4 -38z"/>
<path d="M338 2083 c12 -2 30 -2 40 0 9 3 -1 5 -23 4 -22 0 -30 -2 -17 -4z"/>
<path d="M778 2083 c7 -3 16 -2 19 1 4 3 -2 6 -13 5 -11 0 -14 -3 -6 -6z"/>
<path d="M9528 2083 c7 -3 16 -2 19 1 4 3 -2 6 -13 5 -11 0 -14 -3 -6 -6z"/>
<path d="M560 2060 c0 -5 5 -10 10 -10 6 0 10 5 10 10 0 6 -4 10 -10 10 -5 0
-10 -4 -10 -10z"/>
<path d="M1123 2020 c0 -25 2 -35 4 -22 2 12 2 32 0 45 -2 12 -4 2 -4 -23z"/>
<path d="M1273 2020 c0 -25 2 -35 4 -22 2 12 2 32 0 45 -2 12 -4 2 -4 -23z"/>
<path d="M1370 2021 c0 -23 2 -41 4 -41 8 0 12 71 4 76 -4 3 -8 -13 -8 -35z"/>
<path d="M320 2032 c0 -5 14 -7 30 -4 17 2 30 6 30 8 0 2 -13 4 -30 4 -16 0
-30 -4 -30 -8z"/>
<path d="M873 2033 c-18 -7 -16 -30 2 -30 8 0 15 9 15 19 0 10 -1 18 -2 17 -2
0 -9 -3 -15 -6z"/>
<path d="M1172 2015 c0 -16 2 -22 5 -12 2 9 2 23 0 30 -3 6 -5 -1 -5 -18z"/>
<path d="M1556 2031 c-16 -3 -31 -13 -34 -21 -4 -12 -2 -13 9 -2 7 6 23 12 36
12 13 0 23 5 23 10 0 6 -1 9 -2 9 -2 -1 -16 -4 -32 -8z"/>
<path d="M505 2020 c3 -5 8 -10 11 -10 2 0 4 5 4 10 0 6 -5 10 -11 10 -5 0 -7
-4 -4 -10z"/>
<path d="M13410 2004 c-25 -13 -38 -24 -30 -23 30 3 40 -1 40 -16 0 -8 4 -15
10 -15 5 0 7 13 4 30 -6 27 -4 30 20 30 22 0 26 -5 27 -27 0 -16 3 -22 6 -15
8 20 -6 62 -20 62 -6 -1 -32 -12 -57 -26z"/>
<path d="M960 1996 c0 -8 5 -18 10 -21 6 -3 10 1 10 9 0 8 -4 18 -10 21 -5 3
-10 -1 -10 -9z"/>
<path d="M1640 1990 c0 -5 5 -10 10 -10 6 0 10 5 10 10 0 6 -4 10 -10 10 -5 0
-10 -4 -10 -10z"/>
<path d="M13463 1910 c-18 -11 -33 -28 -32 -37 0 -14 2 -13 9 5 5 12 13 22 18
22 9 0 50 29 42 30 -3 0 -20 -9 -37 -20z"/>
<path d="M333 1903 c9 -2 23 -2 30 0 6 3 -1 5 -18 5 -16 0 -22 -2 -12 -5z"/>
<path d="M6558 1853 c7 -3 16 -2 19 1 4 3 -2 6 -13 5 -11 0 -14 -3 -6 -6z"/>
<path d="M13450 1840 c0 -5 7 -7 15 -4 8 4 15 8 15 10 0 2 -7 4 -15 4 -8 0
-15 -4 -15 -10z"/>
<path d="M5204 1816 c-3 -7 -4 -42 -2 -77 l3 -64 63 -3 c38 -2 69 2 78 9 18
14 19 120 2 137 -17 17 -137 16 -144 -2z m124 -54 c2 -24 -1 -49 -7 -55 -10
-13 -60 -15 -79 -3 -13 8 -17 88 -5 100 4 4 25 6 48 4 40 -3 40 -3 43 -46z"/>
<path d="M5250 1770 c0 -5 14 -10 30 -10 17 0 30 5 30 10 0 6 -13 10 -30 10
-16 0 -30 -4 -30 -10z"/>
<path d="M13535 1820 c3 -5 8 -10 11 -10 2 0 4 5 4 10 0 6 -5 10 -11 10 -5 0
-7 -4 -4 -10z"/>
<path d="M13481 1801 c-8 -5 -9 -11 -3 -15 5 -3 12 1 16 9 6 17 6 18 -13 6z"/>
<path d="M13561 1794 c0 -11 3 -14 6 -6 3 7 2 16 -1 19 -3 4 -6 -2 -5 -13z"/>
<path d="M13570 1679 c-19 -11 -26 -17 -15 -13 11 3 30 9 43 11 12 3 22 9 22
14 0 13 -11 10 -50 -12z"/>
<path d="M14244 1676 c-44 -20 -64 -52 -64 -107 0 -40 7 -55 49 -110 26 -35
52 -77 55 -94 l8 -30 21 45 c12 25 39 67 60 94 30 40 37 57 37 95 0 55 -20 88
-66 107 -41 17 -60 17 -100 0z m128 -32 c42 -41 39 -94 -9 -163 -21 -29 -45
-66 -54 -82 l-17 -29 -6 24 c-3 14 -12 31 -19 38 -81 84 -99 163 -49 210 15
14 34 28 42 31 29 12 83 -3 112 -29z"/>
<path d="M16073 1673 c-59 -30 -73 -123 -28 -184 14 -19 33 -46 42 -61 10 -16
22 -28 26 -28 4 0 -7 21 -25 46 -51 71 -58 86 -58 127 0 75 63 121 134 97 48
-16 69 -52 64 -109 -4 -43 -24 -79 -94 -164 -16 -20 -19 -47 -4 -47 6 0 10 8
10 19 0 10 7 24 15 31 8 7 15 18 15 25 0 6 9 20 21 31 62 56 67 176 9 212 -33
20 -92 23 -127 5z"/>
<path d="M6063 1663 c9 -2 23 -2 30 0 6 3 -1 5 -18 5 -16 0 -22 -2 -12 -5z"/>
<path d="M13640 1564 c-25 -14 -37 -23 -27 -20 12 4 27 -4 42 -20 26 -28 65
-26 65 4 0 13 -2 13 -14 -3 -12 -16 -16 -17 -30 -6 -20 17 -21 47 -1 55 8 3
22 -3 32 -12 16 -16 16 -16 10 1 -4 10 -7 21 -7 23 0 10 -28 1 -70 -22z"/>
<path d="M3895 1515 c-67 -17 -95 -51 -95 -114 0 -42 6 -56 48 -112 27 -35 52
-77 57 -94 l7 -30 19 44 c11 24 37 64 58 90 65 77 61 162 -9 206 -32 21 -39
21 -85 10z m97 -41 c43 -42 39 -95 -12 -165 -22 -30 -45 -66 -52 -80 l-12 -27
-15 28 c-9 16 -33 52 -53 81 -49 69 -52 122 -10 161 15 14 34 28 42 31 29 12
83 -3 112 -29z"/>
<path d="M3323 1503 c9 -2 23 -2 30 0 6 3 -1 5 -18 5 -16 0 -22 -2 -12 -5z"/>
<path d="M14508 1493 c7 -3 16 -2 19 1 4 3 -2 6 -13 5 -11 0 -14 -3 -6 -6z"/>
<path d="M3070 1480 c0 -5 5 -10 11 -10 5 0 7 5 4 10 -3 6 -8 10 -11 10 -2 0
-4 -4 -4 -10z"/>
<path d="M3590 1480 c0 -5 5 -10 11 -10 5 0 7 5 4 10 -3 6 -8 10 -11 10 -2 0
-4 -4 -4 -10z"/>
<path d="M2868 1453 c12 -2 32 -2 45 0 12 2 2 4 -23 4 -25 0 -35 -2 -22 -4z"/>
<path d="M3323 1453 c9 -2 23 -2 30 0 6 3 -1 5 -18 5 -16 0 -22 -2 -12 -5z"/>
<path d="M13665 1449 c-11 -16 -1 -19 13 -3 7 8 8 14 3 14 -5 0 -13 -5 -16
-11z"/>
<path d="M3168 1443 c7 -3 16 -2 19 1 4 3 -2 6 -13 5 -11 0 -14 -3 -6 -6z"/>
<path d="M7617 1433 c-12 -11 -8 -128 5 -141 7 -7 37 -12 68 -12 31 0 61 5 68
12 12 12 17 104 6 132 -5 12 -21 16 -73 16 -37 0 -71 -3 -74 -7z m121 -61 c2
-24 -1 -49 -7 -55 -10 -13 -60 -15 -79 -3 -13 8 -17 88 -5 100 4 4 25 6 48 4
40 -3 40 -3 43 -46z"/>
<path d="M7660 1380 c0 -5 14 -10 30 -10 17 0 30 5 30 10 0 6 -13 10 -30 10
-16 0 -30 -4 -30 -10z"/>
<path d="M15140 1429 c0 -5 5 -7 10 -4 6 3 10 8 10 11 0 2 -4 4 -10 4 -5 0
-10 -5 -10 -11z"/>
<path d="M13710 1418 c0 -4 4 -8 9 -8 6 0 12 4 15 8 3 5 -1 9 -9 9 -8 0 -15
-4 -15 -9z"/>
<path d="M13675 1400 c-3 -5 -2 -10 4 -10 5 0 13 5 16 10 3 6 2 10 -4 10 -5 0
-13 -4 -16 -10z"/>
<path d="M13767 1387 c-3 -8 1 -14 9 -14 8 0 14 6 14 14 0 7 -4 13 -9 13 -5 0
-11 -6 -14 -13z"/>
<path d="M15544 1366 c-44 -20 -64 -52 -64 -107 0 -40 7 -55 49 -110 26 -35
52 -77 56 -94 l7 -30 19 42 c10 23 36 65 58 93 35 44 41 59 41 99 0 55 -20 88
-66 107 -41 17 -60 17 -100 0z m128 -32 c43 -42 39 -95 -12 -165 -22 -30 -45
-66 -52 -80 l-12 -27 -15 28 c-9 16 -33 52 -53 81 -49 69 -52 122 -10 161 15
14 34 28 42 31 29 12 83 -3 112 -29z"/>
<path d="M6967 1306 c-3 -7 -19 -16 -36 -19 -17 -4 -31 -11 -31 -16 0 -6 14
-6 36 1 28 7 39 7 45 -3 6 -10 13 -7 27 12 14 17 17 26 9 31 -19 12 -44 9 -50
-6z"/>
<path d="M2956 1293 c-4 -13 -13 -23 -21 -23 -10 0 -11 -5 -2 -24 7 -13 20
-23 32 -23 12 0 25 10 32 23 9 19 8 24 -1 24 -7 0 -17 10 -23 23 l-10 22 -7
-22z"/>
<path d="M13805 1300 c-7 -12 2 -30 16 -30 5 0 9 9 9 20 0 21 -15 27 -25 10z"/>
<path d="M13752 1263 c-6 -2 -10 -9 -6 -14 8 -14 21 -11 21 6 0 8 -1 15 -1 14
-1 0 -7 -3 -14 -6z"/>
<path d="M16720 1261 c0 -5 5 -13 10 -16 6 -3 10 -2 10 4 0 5 -4 13 -10 16 -5
3 -10 2 -10 -4z"/>
<path d="M3268 1253 c7 -3 16 -2 19 1 4 3 -2 6 -13 5 -11 0 -14 -3 -6 -6z"/>
<path d="M3618 1253 c7 -3 16 -2 19 1 4 3 -2 6 -13 5 -11 0 -14 -3 -6 -6z"/>
<path d="M2720 1230 c0 -5 5 -10 11 -10 5 0 7 5 4 10 -3 6 -8 10 -11 10 -2 0
-4 -4 -4 -10z"/>
<path d="M2835 1230 c-3 -5 -1 -10 4 -10 6 0 11 5 11 10 0 6 -2 10 -4 10 -3 0
-8 -4 -11 -10z"/>
<path d="M3093 1213 c9 -2 23 -2 30 0 6 3 -1 5 -18 5 -16 0 -22 -2 -12 -5z"/>
<path d="M15883 1203 c9 -2 23 -2 30 0 6 3 -1 5 -18 5 -16 0 -22 -2 -12 -5z"/>
<path d="M15983 1203 c9 -2 25 -2 35 0 9 3 1 5 -18 5 -19 0 -27 -2 -17 -5z"/>
<path d="M16498 1203 c12 -2 30 -2 40 0 9 3 -1 5 -23 4 -22 0 -30 -2 -17 -4z"/>
<path d="M16608 1203 c6 -2 18 -2 25 0 6 3 1 5 -13 5 -14 0 -19 -2 -12 -5z"/>
<path d="M16898 1203 c6 -2 18 -2 25 0 6 3 1 5 -13 5 -14 0 -19 -2 -12 -5z"/>
<path d="M13800 1179 c0 -5 5 -7 10 -4 6 3 10 8 10 11 0 2 -4 4 -10 4 -5 0
-10 -5 -10 -11z"/>
<path d="M13844 1160 c0 -15 4 -16 18 -9 10 5 18 13 18 16 0 3 -3 3 -7 0 -3
-4 -11 -3 -17 3 -8 6 -12 3 -12 -10z"/>
<path d="M15998 1153 c7 -3 16 -2 19 1 4 3 -2 6 -13 5 -11 0 -14 -3 -6 -6z"/>
<path d="M6055 1082 c-1 -2 -1 -12 2 -22 4 -15 9 -17 29 -10 23 9 24 8 24 -40
0 -38 -4 -50 -15 -50 -10 0 -15 10 -15 29 0 33 -25 49 -33 21 -3 -10 1 -29 7
-42 10 -20 20 -23 83 -26 64 -3 73 -1 83 18 7 12 8 35 3 58 -4 20 -6 44 -5 52
2 13 -12 15 -78 15 -45 0 -83 -1 -85 -3z m129 -28 c25 -10 20 -36 -6 -32 -15
2 -23 -2 -23 -12 0 -10 8 -14 23 -12 28 4 30 -24 2 -33 -48 -15 -80 43 -44 79
17 18 24 19 48 10z"/>
<path d="M18423 1003 c9 -2 25 -2 35 0 9 3 1 5 -18 5 -19 0 -27 -2 -17 -5z"/>
<path d="M3213 963 c9 -2 23 -2 30 0 6 3 -1 5 -18 5 -16 0 -22 -2 -12 -5z"/>
<path d="M3478 963 c7 -3 16 -2 19 1 4 3 -2 6 -13 5 -11 0 -14 -3 -6 -6z"/>
<path d="M4118 963 c7 -3 16 -2 19 1 4 3 -2 6 -13 5 -11 0 -14 -3 -6 -6z"/>
<path d="M4264 926 c9 -21 11 -37 5 -43 -6 -6 -1 -17 11 -28 18 -16 23 -17 30
-5 14 22 12 50 -4 50 -8 0 -19 14 -25 30 -5 17 -15 30 -21 30 -6 0 -5 -12 4
-34z"/>
<path d="M13438 913 c12 -2 30 -2 40 0 9 3 -1 5 -23 4 -22 0 -30 -2 -17 -4z"/>
<path d="M5712 883 c2 -11 -7 -20 -29 -26 -18 -6 -33 -14 -33 -18 0 -12 13
-11 46 1 18 7 31 7 37 1 7 -7 17 -1 30 15 22 29 22 29 -21 37 -27 6 -32 4 -30
-10z"/>
<path d="M15558 893 c6 -2 18 -2 25 0 6 3 1 5 -13 5 -14 0 -19 -2 -12 -5z"/>
<path d="M15898 893 c6 -2 18 -2 25 0 6 3 1 5 -13 5 -14 0 -19 -2 -12 -5z"/>
<path d="M15683 883 c9 -2 25 -2 35 0 9 3 1 5 -18 5 -19 0 -27 -2 -17 -5z"/>
<path d="M16028 843 c12 -2 30 -2 40 0 9 3 -1 5 -23 4 -22 0 -30 -2 -17 -4z"/>
<path d="M3728 813 c7 -3 16 -2 19 1 4 3 -2 6 -13 5 -11 0 -14 -3 -6 -6z"/>
<path d="M13954 496 c-44 -20 -64 -52 -64 -107 0 -40 7 -55 49 -110 26 -35 52
-77 55 -94 l8 -30 21 45 c12 25 39 67 60 94 30 40 37 57 37 95 0 55 -20 88
-66 107 -41 17 -60 17 -100 0z m128 -32 c42 -41 39 -94 -9 -163 -21 -29 -45
-66 -54 -82 l-17 -29 -6 24 c-3 14 -12 31 -19 38 -81 84 -99 163 -49 210 15
14 34 28 42 31 29 12 83 -3 112 -29z"/>
<path d="M18859 474 c-42 -18 -59 -48 -59 -108 0 -34 8 -53 40 -95 21 -30 41
-59 43 -65 2 -6 7 -9 10 -6 3 3 -12 30 -35 60 -70 93 -62 184 18 210 77 26
140 -26 132 -109 -4 -43 -24 -79 -94 -164 -16 -20 -19 -47 -4 -47 6 0 10 7 10
15 0 15 21 50 75 124 39 54 32 150 -14 178 -33 20 -84 23 -122 7z"/>
<path d="M17558 473 c12 -2 32 -2 45 0 12 2 2 4 -23 4 -25 0 -35 -2 -22 -4z"/>
<path d="M18083 473 c9 -2 23 -2 30 0 6 3 -1 5 -18 5 -16 0 -22 -2 -12 -5z"/>
<path d="M18370 450 c0 -5 5 -10 10 -10 6 0 10 5 10 10 0 6 -4 10 -10 10 -5 0
-10 -4 -10 -10z"/>
<path d="M12700 439 c0 -5 5 -7 10 -4 6 3 10 8 10 11 0 2 -4 4 -10 4 -5 0 -10
-5 -10 -11z"/>
<path d="M18083 423 c9 -2 23 -2 30 0 6 3 -1 5 -18 5 -16 0 -22 -2 -12 -5z"/>
<path d="M17870 416 c0 -2 7 -6 15 -10 8 -3 15 -1 15 4 0 6 -7 10 -15 10 -8 0
-15 -2 -15 -4z"/>
<path d="M18708 413 c7 -3 16 -2 19 1 4 3 -2 6 -13 5 -11 0 -14 -3 -6 -6z"/>
<path d="M12123 403 c9 -2 25 -2 35 0 9 3 1 5 -18 5 -19 0 -27 -2 -17 -5z"/>
<path d="M12373 403 c9 -2 25 -2 35 0 9 3 1 5 -18 5 -19 0 -27 -2 -17 -5z"/>
<path d="M12623 403 c9 -2 25 -2 35 0 9 3 1 5 -18 5 -19 0 -27 -2 -17 -5z"/>
<path d="M17891 374 c0 -11 3 -14 6 -6 3 7 2 16 -1 19 -3 4 -6 -2 -5 -13z"/>
<path d="M12138 353 c7 -3 16 -2 19 1 4 3 -2 6 -13 5 -11 0 -14 -3 -6 -6z"/>
<path d="M12628 353 c7 -3 16 -2 19 1 4 3 -2 6 -13 5 -11 0 -14 -3 -6 -6z"/>
<path d="M4379 341 c-1 -3 -1 -10 0 -14 1 -4 -15 -15 -35 -23 -44 -18 -38 -31
7 -15 25 9 34 8 40 -1 5 -8 14 -5 28 13 11 13 20 27 21 30 0 8 -60 18 -61 10z"/>
<path d="M15060 320 c0 -5 5 -10 11 -10 5 0 7 5 4 10 -3 6 -8 10 -11 10 -2 0
-4 -4 -4 -10z"/>
<path d="M14203 303 c9 -2 23 -2 30 0 6 3 -1 5 -18 5 -16 0 -22 -2 -12 -5z"/>
<path d="M14303 303 c9 -2 25 -2 35 0 9 3 1 5 -18 5 -19 0 -27 -2 -17 -5z"/>
<path d="M14543 303 c9 -2 25 -2 35 0 9 3 1 5 -18 5 -19 0 -27 -2 -17 -5z"/>
<path d="M15178 303 c6 -2 18 -2 25 0 6 3 1 5 -13 5 -14 0 -19 -2 -12 -5z"/>
<path d="M12158 253 c7 -3 16 -2 19 1 4 3 -2 6 -13 5 -11 0 -14 -3 -6 -6z"/>
<path d="M17938 247 c-11 -9 -14 -22 -11 -40 4 -22 8 -25 19 -16 11 9 17 9 28
0 11 -9 15 -6 19 16 4 24 -13 52 -33 52 -3 0 -12 -5 -22 -12z"/>
<path d="M18258 223 c7 -3 16 -2 19 1 4 3 -2 6 -13 5 -11 0 -14 -3 -6 -6z"/>
<path d="M18608 223 c7 -3 16 -2 19 1 4 3 -2 6 -13 5 -11 0 -14 -3 -6 -6z"/>
<path d="M11308 213 c6 -2 18 -2 25 0 6 3 1 5 -13 5 -14 0 -19 -2 -12 -5z"/>
<path d="M11618 213 c6 -2 18 -2 25 0 6 3 1 5 -13 5 -14 0 -19 -2 -12 -5z"/>
<path d="M11833 213 c9 -2 25 -2 35 0 9 3 1 5 -18 5 -19 0 -27 -2 -17 -5z"/>
<path d="M12073 213 c9 -2 25 -2 35 0 9 3 1 5 -18 5 -19 0 -27 -2 -17 -5z"/>
<path d="M12223 213 c9 -2 25 -2 35 0 9 3 1 5 -18 5 -19 0 -27 -2 -17 -5z"/>
<path d="M12528 213 c6 -2 18 -2 25 0 6 3 1 5 -13 5 -14 0 -19 -2 -12 -5z"/>
<path d="M12688 213 c6 -2 18 -2 25 0 6 3 1 5 -13 5 -14 0 -19 -2 -12 -5z"/>
<path d="M17710 200 c0 -5 5 -10 11 -10 5 0 7 5 4 10 -3 6 -8 10 -11 10 -2 0
-4 -4 -4 -10z"/>
<path d="M17803 173 c9 -2 23 -2 30 0 6 3 -1 5 -18 5 -16 0 -22 -2 -12 -5z"/>
<path d="M6193 125 c0 -27 2 -38 4 -22 2 15 2 37 0 50 -2 12 -4 0 -4 -28z"/>
<path d="M12238 163 c7 -3 16 -2 19 1 4 3 -2 6 -13 5 -11 0 -14 -3 -6 -6z"/>
<path d="M5261 134 c0 -11 3 -14 6 -6 3 7 2 16 -1 19 -3 4 -6 -2 -5 -13z"/>
<path d="M12403 115 c-40 -17 -66 -56 -60 -92 l4 -28 2 31 c2 47 51 89 106 89
55 0 104 -42 106 -89 l2 -31 4 28 c6 37 -20 75 -62 93 -42 17 -61 17 -102 -1z"/>
<path d="M5846 95 c4 -8 8 -15 10 -15 2 0 4 7 4 15 0 8 -4 15 -10 15 -5 0 -7
-7 -4 -15z"/>
<path d="M16603 63 c9 -2 25 -2 35 0 9 3 1 5 -18 5 -19 0 -27 -2 -17 -5z"/>
</g>
</svg>
