<svg xmlns="http://www.w3.org/2000/svg" xmlns:xlink="http://www.w3.org/1999/xlink" version="1.1" x="px" y="0px" viewBox="0 0 1000 1250" width="200px" height="240px" style="enable-background:new 0 0 1000 1000;" xml:space="preserve"><path fill="currentColor" d="M956.2,495.7H584c-3.4,0-6.7-0.6-9.9-1.7l-16-5.5l-5.9,3.3c-4.6,2.5-9.7,3.9-14.9,3.9h-0.3c-6,0-11.9-1.8-17-5.1l-20.2-13.5  L480,490.4c-5.1,3.4-11.1,5.3-17.2,5.3h0c-5.2,0-10.4-1.3-14.9-3.9l-5.9-3.3l-16,5.5c-3.2,1.1-6.6,1.7-9.9,1.7H43.8  c-2.4,0-4.3,1.9-4.3,4.3c0,2.4,1.9,4.3,4.3,4.3H416c3.4,0,6.7,0.6,9.9,1.7l16,5.5l5.9-3.3c4.6-2.5,9.7-3.9,14.9-3.9h0.3  c6,0,11.9,1.8,17,5.1l20.2,13.5l19.7-13.3c5.1-3.4,11.1-5.3,17.2-5.3l0,0c5.2,0,10.4,1.3,14.9,3.9l5.9,3.3l16-5.5  c3.2-1.1,6.6-1.7,9.9-1.7h372.2c2.4,0,4.3-1.9,4.3-4.3C960.5,497.6,958.5,495.7,956.2,495.7z"/>
</svg>